# xmcd
#
# Track frame offsets: 
#        150
#        21962
#        44275
#        64470
#        88288
#
# Disc length: 1452 seconds
#
# Revision: 0
# Processed by: cddbd v1.5.2PL0 Copyright (c) Steve Scherf et al.
# Submitted via: ExactAudioCopy v1.0b3
#
DISCID=4305aa05
DTITLE=Lambchop - White Sessions 1998 "How I Met Cat Power"
DYEAR=1998
DGENRE=Alternative
TTITLE0=What Else Could It Be?
TTITLE1=Up With People
TTITLE2=The Distance From Her To There
TTITLE3=The Book I Haven't Read
TTITLE4=The Saturday Option
EXTD=
EXTT0=
EXTT1=
EXTT2=
EXTT3=
EXTT4=
PLAYORDER=
